<svg width="172" height="172" viewBox="0 0 172 172" fill="none" xmlns="http://www.w3.org/2000/svg">
<path fill-rule="evenodd" clip-rule="evenodd" d="M111.006 4.56082C94.7437 -4.82804 73.9497 0.74374 64.5608 17.0057L4.56082 120.929C-4.82804 137.191 0.74374 157.985 17.0057 167.374C33.2676 176.762 54.0617 171.191 63.4505 154.929L123.451 51.0057C132.839 34.7437 127.268 13.9497 111.006 4.56082ZM110.451 90.9671C94.1886 100.356 88.6168 121.15 98.0056 137.412L108.026 154.768C117.415 171.03 138.209 176.602 154.471 167.213C170.733 157.824 176.305 137.03 166.916 120.768L156.895 103.412C147.507 87.15 126.712 81.5782 110.451 90.9671Z" fill="url(#paint0_linear_12_142)"/>
<defs>
<linearGradient id="paint0_linear_12_142" x1="85.7384" y1="0" x2="85.7384" y2="171.934" gradientUnits="userSpaceOnUse">
<stop stop-color="#FF426B"/>
<stop offset="1" stop-color="#A73CFF"/>
</linearGradient>
</defs>
</svg>
